<svg width="265" height="153" viewBox="0 0 265 153" fill="none" xmlns="http://www.w3.org/2000/svg">
<rect width="265" height="153" rx="16" fill="white"/>
<path d="M25.2578 29.0059H28.3682C29.7855 29.0059 30.8132 29.2087 31.4512 29.6143C32.0938 30.0153 32.415 30.6556 32.415 31.5352C32.415 32.1322 32.2738 32.6221 31.9912 33.0049C31.7132 33.3877 31.3418 33.6178 30.877 33.6953V33.7637C31.5104 33.9049 31.9661 34.1693 32.2441 34.5566C32.5267 34.944 32.668 35.459 32.668 36.1016C32.668 37.013 32.3376 37.724 31.6768 38.2344C31.0205 38.7448 30.1273 39 28.9971 39H25.2578V29.0059ZM27.377 32.9639H28.6074C29.1816 32.9639 29.5964 32.875 29.8516 32.6973C30.1113 32.5195 30.2412 32.2256 30.2412 31.8154C30.2412 31.4326 30.0999 31.1592 29.8174 30.9951C29.5394 30.8265 29.0973 30.7422 28.4912 30.7422H27.377V32.9639ZM27.377 34.6455V37.25H28.7578C29.3411 37.25 29.7718 37.1383 30.0498 36.915C30.3278 36.6917 30.4668 36.3499 30.4668 35.8896C30.4668 35.0602 29.8743 34.6455 28.6895 34.6455H27.377ZM34.4111 29.3818C34.4111 28.7028 34.7894 28.3633 35.5459 28.3633C36.3024 28.3633 36.6807 28.7028 36.6807 29.3818C36.6807 29.7054 36.585 29.9583 36.3936 30.1406C36.2067 30.3184 35.9242 30.4072 35.5459 30.4072C34.7894 30.4072 34.4111 30.0654 34.4111 29.3818ZM36.585 39H34.5V31.3574H36.585V39ZM41.999 37.4756C42.3636 37.4756 42.8011 37.3958 43.3115 37.2363V38.7881C42.792 39.0205 42.154 39.1367 41.3975 39.1367C40.5635 39.1367 39.9551 38.9271 39.5723 38.5078C39.194 38.084 39.0049 37.4505 39.0049 36.6074V32.9229H38.0068V32.041L39.1553 31.3438L39.7568 29.7305H41.0898V31.3574H43.2295V32.9229H41.0898V36.6074C41.0898 36.9036 41.1719 37.1224 41.3359 37.2637C41.5046 37.4049 41.7256 37.4756 41.999 37.4756ZM47.9668 39.1367C45.5879 39.1367 44.3984 37.8311 44.3984 35.2197C44.3984 33.9209 44.722 32.9297 45.3691 32.2461C46.0163 31.5579 46.9437 31.2139 48.1514 31.2139C49.0355 31.2139 49.8285 31.387 50.5303 31.7334L49.915 33.3467C49.5869 33.2145 49.2816 33.1074 48.999 33.0254C48.7165 32.9388 48.4339 32.8955 48.1514 32.8955C47.0667 32.8955 46.5244 33.6657 46.5244 35.2061C46.5244 36.7008 47.0667 37.4482 48.1514 37.4482C48.5524 37.4482 48.9238 37.3958 49.2656 37.291C49.6074 37.1816 49.9492 37.013 50.291 36.7852V38.5693C49.9538 38.7835 49.612 38.9316 49.2656 39.0137C48.9238 39.0957 48.4909 39.1367 47.9668 39.1367ZM53.7295 35.165C53.7295 35.9215 53.8525 36.4935 54.0986 36.8809C54.3493 37.2682 54.7549 37.4619 55.3154 37.4619C55.8714 37.4619 56.2702 37.2705 56.5117 36.8877C56.7578 36.5003 56.8809 35.9261 56.8809 35.165C56.8809 34.4085 56.7578 33.8411 56.5117 33.4629C56.2656 33.0846 55.8623 32.8955 55.3018 32.8955C54.7458 32.8955 54.3447 33.0846 54.0986 33.4629C53.8525 33.8366 53.7295 34.404 53.7295 35.165ZM59.0137 35.165C59.0137 36.4092 58.6855 37.3822 58.0293 38.084C57.373 38.7858 56.4593 39.1367 55.2881 39.1367C54.5544 39.1367 53.9072 38.9772 53.3467 38.6582C52.7861 38.3346 52.3555 37.8721 52.0547 37.2705C51.7539 36.6689 51.6035 35.9671 51.6035 35.165C51.6035 33.9163 51.9294 32.9456 52.5811 32.2529C53.2327 31.5602 54.1488 31.2139 55.3291 31.2139C56.0628 31.2139 56.71 31.3734 57.2705 31.6924C57.8311 32.0114 58.2617 32.4694 58.5625 33.0664C58.8633 33.6634 59.0137 34.363 59.0137 35.165ZM60.6475 29.3818C60.6475 28.7028 61.0257 28.3633 61.7822 28.3633C62.5387 28.3633 62.917 28.7028 62.917 29.3818C62.917 29.7054 62.8213 29.9583 62.6299 30.1406C62.443 30.3184 62.1605 30.4072 61.7822 30.4072C61.0257 30.4072 60.6475 30.0654 60.6475 29.3818ZM62.8213 39H60.7363V31.3574H62.8213V39ZM72.0703 39H69.9854V34.5361C69.9854 33.9847 69.8874 33.5723 69.6914 33.2988C69.4954 33.0208 69.1833 32.8818 68.7549 32.8818C68.1715 32.8818 67.75 33.0778 67.4902 33.4697C67.2305 33.8571 67.1006 34.502 67.1006 35.4043V39H65.0156V31.3574H66.6084L66.8887 32.335H67.0049C67.2373 31.9658 67.5563 31.6878 67.9619 31.501C68.3721 31.3096 68.8369 31.2139 69.3564 31.2139C70.2451 31.2139 70.9196 31.4554 71.3799 31.9385C71.8402 32.417 72.0703 33.1097 72.0703 34.0166V39Z" fill="#26233C"/>
<path d="M35.7305 70.0908C35.7305 71.2295 35.3187 72.1462 34.4951 72.8408C33.6715 73.5283 32.5186 73.9401 31.0361 74.0762V76.2783H29.5645V74.1191C27.8171 74.0833 26.2845 73.7754 24.9668 73.1953V70.3594C25.5898 70.6673 26.3382 70.9395 27.2119 71.1758C28.0928 71.4121 28.877 71.5518 29.5645 71.5947V68.2646L28.8447 67.9854C27.4268 67.4268 26.4206 66.8216 25.8262 66.1699C25.2389 65.5111 24.9453 64.6982 24.9453 63.7314C24.9453 62.693 25.3499 61.8408 26.1592 61.1748C26.9756 60.5016 28.1107 60.0934 29.5645 59.9502V58.3066H31.0361V59.9072C32.6761 59.9788 34.1585 60.3083 35.4834 60.8955L34.4736 63.4092C33.3564 62.9508 32.2106 62.6715 31.0361 62.5713V65.7402C32.4326 66.2773 33.4245 66.7428 34.0117 67.1367C34.6061 67.5306 35.0394 67.9639 35.3115 68.4365C35.5908 68.9092 35.7305 69.4606 35.7305 70.0908ZM32.4971 70.252C32.4971 69.9512 32.3753 69.6969 32.1318 69.4893C31.8883 69.2816 31.5231 69.0667 31.0361 68.8447V71.5195C32.0101 71.3548 32.4971 70.9323 32.4971 70.252ZM28.1787 63.7314C28.1787 64.0465 28.2861 64.3079 28.501 64.5156C28.723 64.7161 29.0775 64.9238 29.5645 65.1387V62.6143C28.6406 62.7503 28.1787 63.1227 28.1787 63.7314ZM43.1641 64.9668C44.6823 64.9668 45.889 65.3929 46.7842 66.2451C47.6865 67.0973 48.1377 68.2646 48.1377 69.7471C48.1377 71.5016 47.597 72.8516 46.5156 73.7969C45.4342 74.7422 43.8874 75.2148 41.875 75.2148C40.1276 75.2148 38.7168 74.932 37.6426 74.3662V71.498C38.2083 71.7988 38.8672 72.0459 39.6191 72.2393C40.3711 72.4255 41.0837 72.5186 41.7568 72.5186C43.7835 72.5186 44.7969 71.6878 44.7969 70.0264C44.7969 68.4437 43.7477 67.6523 41.6494 67.6523C41.2699 67.6523 40.8509 67.6917 40.3926 67.7705C39.9342 67.8421 39.5618 67.9209 39.2754 68.0068L37.9541 67.2979L38.5449 59.2949H47.0635V62.1094H41.4561L41.166 65.1924L41.542 65.1172C41.9788 65.0169 42.5195 64.9668 43.1641 64.9668ZM60.3838 62.8076C60.3838 63.7887 60.0866 64.623 59.4922 65.3105C58.8978 65.998 58.0635 66.4707 56.9893 66.7285V66.793C58.2568 66.9505 59.2165 67.3372 59.8682 67.9531C60.5199 68.5618 60.8457 69.3854 60.8457 70.4238C60.8457 71.9349 60.2979 73.113 59.2021 73.958C58.1064 74.7959 56.5417 75.2148 54.5078 75.2148C52.8034 75.2148 51.2923 74.932 49.9746 74.3662V71.541C50.5833 71.849 51.2529 72.0996 51.9834 72.293C52.7139 72.4863 53.4372 72.583 54.1533 72.583C55.249 72.583 56.0583 72.3968 56.5811 72.0244C57.1038 71.652 57.3652 71.054 57.3652 70.2305C57.3652 69.4928 57.0645 68.9701 56.4629 68.6621C55.8613 68.3542 54.9017 68.2002 53.584 68.2002H52.3916V65.6543H53.6055C54.8229 65.6543 55.7109 65.4967 56.2695 65.1816C56.8353 64.8594 57.1182 64.3115 57.1182 63.5381C57.1182 62.3493 56.3734 61.7549 54.8838 61.7549C54.3682 61.7549 53.8418 61.8408 53.3047 62.0127C52.7747 62.1846 52.1839 62.4818 51.5322 62.9043L49.9961 60.6162C51.4284 59.585 53.1364 59.0693 55.1201 59.0693C56.7458 59.0693 58.0277 59.3988 58.9658 60.0576C59.9111 60.7165 60.3838 61.6331 60.3838 62.8076ZM62.9619 73.4639C62.9619 72.8623 63.123 72.4076 63.4453 72.0996C63.7676 71.7917 64.2367 71.6377 64.8525 71.6377C65.4469 71.6377 65.9053 71.7952 66.2275 72.1104C66.557 72.4255 66.7217 72.8766 66.7217 73.4639C66.7217 74.0296 66.557 74.4772 66.2275 74.8066C65.8981 75.1289 65.4398 75.29 64.8525 75.29C64.251 75.29 63.7855 75.1325 63.4561 74.8174C63.1266 74.4951 62.9619 74.0439 62.9619 73.4639ZM74.2734 59.0908C75.7773 59.0908 76.9876 59.4346 77.9043 60.1221C78.8281 60.8024 79.29 61.7227 79.29 62.8828C79.29 63.6849 79.068 64.401 78.624 65.0312C78.18 65.6543 77.4639 66.2129 76.4756 66.707C77.6501 67.3372 78.4915 67.9961 79 68.6836C79.5156 69.3639 79.7734 70.1123 79.7734 70.9287C79.7734 72.2178 79.2686 73.2562 78.2588 74.0439C77.249 74.8245 75.9206 75.2148 74.2734 75.2148C72.5547 75.2148 71.2048 74.8496 70.2236 74.1191C69.2425 73.3887 68.752 72.3538 68.752 71.0146C68.752 70.1195 68.9883 69.3245 69.4609 68.6299C69.9408 67.9352 70.707 67.3229 71.7598 66.793C70.8646 66.2272 70.2201 65.6221 69.8262 64.9775C69.4323 64.333 69.2354 63.6276 69.2354 62.8613C69.2354 61.737 69.7008 60.8275 70.6318 60.1328C71.5628 59.4382 72.7767 59.0908 74.2734 59.0908ZM71.8242 70.8213C71.8242 71.4372 72.0391 71.917 72.4688 72.2607C72.8984 72.6045 73.4857 72.7764 74.2305 72.7764C75.054 72.7764 75.6699 72.6009 76.0781 72.25C76.4863 71.8919 76.6904 71.4229 76.6904 70.8428C76.6904 70.363 76.4863 69.9154 76.0781 69.5C75.6771 69.0775 75.0218 68.6299 74.1123 68.1572C72.5869 68.859 71.8242 69.7471 71.8242 70.8213ZM74.252 61.5186C73.6862 61.5186 73.2279 61.6654 72.877 61.959C72.5332 62.2454 72.3613 62.6322 72.3613 63.1191C72.3613 63.5488 72.4974 63.9355 72.7695 64.2793C73.0488 64.6159 73.5501 64.9632 74.2734 65.3213C74.9753 64.9919 75.4658 64.6553 75.7451 64.3115C76.0244 63.9678 76.1641 63.5703 76.1641 63.1191C76.1641 62.625 75.985 62.2347 75.627 61.9482C75.2689 61.6618 74.8105 61.5186 74.252 61.5186ZM81.3203 68.3291C81.3203 65.221 81.9756 62.9079 83.2861 61.3896C84.6038 59.8714 86.5732 59.1123 89.1943 59.1123C90.0895 59.1123 90.7913 59.166 91.2998 59.2734V61.9268C90.6624 61.7835 90.0322 61.7119 89.4092 61.7119C88.2705 61.7119 87.3395 61.8838 86.6162 62.2275C85.9001 62.5713 85.363 63.0798 85.0049 63.7529C84.6468 64.4261 84.4355 65.3822 84.3711 66.6211H84.5107C85.2197 65.4036 86.3548 64.7949 87.916 64.7949C89.3197 64.7949 90.4189 65.2354 91.2139 66.1162C92.0088 66.9971 92.4062 68.2145 92.4062 69.7686C92.4062 71.4443 91.9336 72.7728 90.9883 73.7539C90.043 74.7279 88.7324 75.2148 87.0566 75.2148C85.8965 75.2148 84.8831 74.9463 84.0166 74.4092C83.1572 73.8721 82.4912 73.0879 82.0186 72.0566C81.5531 71.0254 81.3203 69.7829 81.3203 68.3291ZM86.9922 72.5615C87.7012 72.5615 88.2454 72.3252 88.625 71.8525C89.0046 71.3727 89.1943 70.6924 89.1943 69.8115C89.1943 69.0452 89.0153 68.4437 88.6572 68.0068C88.3063 67.5628 87.7728 67.3408 87.0566 67.3408C86.3835 67.3408 85.807 67.5592 85.3271 67.9961C84.8545 68.4329 84.6182 68.9414 84.6182 69.5215C84.6182 70.3737 84.8402 71.0934 85.2842 71.6807C85.7354 72.2679 86.3047 72.5615 86.9922 72.5615ZM104.362 62.8076C104.362 63.7887 104.065 64.623 103.471 65.3105C102.876 65.998 102.042 66.4707 100.968 66.7285V66.793C102.235 66.9505 103.195 67.3372 103.847 67.9531C104.498 68.5618 104.824 69.3854 104.824 70.4238C104.824 71.9349 104.276 73.113 103.181 73.958C102.085 74.7959 100.52 75.2148 98.4863 75.2148C96.7819 75.2148 95.2708 74.932 93.9531 74.3662V71.541C94.5618 71.849 95.2314 72.0996 95.9619 72.293C96.6924 72.4863 97.4157 72.583 98.1318 72.583C99.2275 72.583 100.037 72.3968 100.56 72.0244C101.082 71.652 101.344 71.054 101.344 70.2305C101.344 69.4928 101.043 68.9701 100.441 68.6621C99.8398 68.3542 98.8802 68.2002 97.5625 68.2002H96.3701V65.6543H97.584C98.8014 65.6543 99.6895 65.4967 100.248 65.1816C100.814 64.8594 101.097 64.3115 101.097 63.5381C101.097 62.3493 100.352 61.7549 98.8623 61.7549C98.3467 61.7549 97.8203 61.8408 97.2832 62.0127C96.7533 62.1846 96.1624 62.4818 95.5107 62.9043L93.9746 60.6162C95.4069 59.585 97.1149 59.0693 99.0986 59.0693C100.724 59.0693 102.006 59.3988 102.944 60.0576C103.89 60.7165 104.362 61.6331 104.362 62.8076ZM110.614 72.6904C110.242 74.137 109.612 75.8522 108.724 77.8359H106.36C106.826 75.931 107.188 74.1335 107.445 72.4434H110.453L110.614 72.6904ZM123.859 65.998C123.859 69.0918 123.208 71.4014 121.904 72.9268C120.601 74.4521 118.628 75.2148 115.985 75.2148C115.054 75.2148 114.349 75.1647 113.869 75.0645V72.4004C114.471 72.5508 115.101 72.626 115.76 72.626C116.87 72.626 117.783 72.4648 118.499 72.1426C119.215 71.8132 119.763 71.3011 120.143 70.6064C120.522 69.9046 120.741 68.9414 120.798 67.7168H120.669C120.254 68.39 119.774 68.8626 119.229 69.1348C118.685 69.4069 118.005 69.543 117.188 69.543C115.821 69.543 114.743 69.1061 113.955 68.2324C113.167 67.3516 112.773 66.1305 112.773 64.5693C112.773 62.8864 113.25 61.5579 114.202 60.584C115.162 59.6029 116.465 59.1123 118.112 59.1123C119.272 59.1123 120.286 59.3844 121.152 59.9287C122.026 60.473 122.696 61.2643 123.161 62.3027C123.627 63.334 123.859 64.5658 123.859 65.998ZM118.177 61.7764C117.489 61.7764 116.952 62.0127 116.565 62.4854C116.179 62.958 115.985 63.6383 115.985 64.5264C115.985 65.2855 116.161 65.887 116.512 66.3311C116.863 66.7751 117.396 66.9971 118.112 66.9971C118.785 66.9971 119.362 66.7786 119.842 66.3418C120.322 65.8978 120.562 65.3893 120.562 64.8164C120.562 63.9642 120.336 63.2445 119.885 62.6572C119.441 62.07 118.871 61.7764 118.177 61.7764Z" fill="#26233C"/>
<rect x="24" y="97" width="59" height="32" rx="8" fill="#33AA54" fill-opacity="0.2"/>
<path d="M38.7832 114.414H36.5156V113.131H38.7832V110.846H40.0664V113.131H42.334V114.414H40.0664V116.67H38.7832V114.414ZM49.3242 118H43.3359V116.74L45.4863 114.566C46.123 113.914 46.5391 113.463 46.7344 113.213C46.9297 112.959 47.0703 112.725 47.1562 112.51C47.2422 112.295 47.2852 112.072 47.2852 111.842C47.2852 111.498 47.1895 111.242 46.998 111.074C46.8105 110.906 46.5586 110.822 46.2422 110.822C45.9102 110.822 45.5879 110.898 45.2754 111.051C44.9629 111.203 44.6367 111.42 44.2969 111.701L43.3125 110.535C43.7344 110.176 44.084 109.922 44.3613 109.773C44.6387 109.625 44.9414 109.512 45.2695 109.434C45.5977 109.352 45.9648 109.311 46.3711 109.311C46.9062 109.311 47.3789 109.408 47.7891 109.604C48.1992 109.799 48.5176 110.072 48.7441 110.424C48.9707 110.775 49.084 111.178 49.084 111.631C49.084 112.025 49.0137 112.396 48.873 112.744C48.7363 113.088 48.5215 113.441 48.2285 113.805C47.9395 114.168 47.4277 114.686 46.6934 115.357L45.5918 116.395V116.477H49.3242V118ZM52.4004 116.74C52.1973 117.529 51.8535 118.465 51.3691 119.547H50.0801C50.334 118.508 50.5312 117.527 50.6719 116.605H52.3125L52.4004 116.74ZM56.7891 112.527C57.6172 112.527 58.2754 112.76 58.7637 113.225C59.2559 113.689 59.502 114.326 59.502 115.135C59.502 116.092 59.207 116.828 58.6172 117.344C58.0273 117.859 57.1836 118.117 56.0859 118.117C55.1328 118.117 54.3633 117.963 53.7773 117.654V116.09C54.0859 116.254 54.4453 116.389 54.8555 116.494C55.2656 116.596 55.6543 116.646 56.0215 116.646C57.127 116.646 57.6797 116.193 57.6797 115.287C57.6797 114.424 57.1074 113.992 55.9629 113.992C55.7559 113.992 55.5273 114.014 55.2773 114.057C55.0273 114.096 54.8242 114.139 54.668 114.186L53.9473 113.799L54.2695 109.434H58.916V110.969H55.8574L55.6992 112.65L55.9043 112.609C56.1426 112.555 56.4375 112.527 56.7891 112.527ZM61.8926 112C61.8926 112.496 61.9355 112.867 62.0215 113.113C62.1113 113.355 62.2539 113.477 62.4492 113.477C62.8242 113.477 63.0117 112.984 63.0117 112C63.0117 111.023 62.8242 110.535 62.4492 110.535C62.2539 110.535 62.1113 110.656 62.0215 110.898C61.9355 111.137 61.8926 111.504 61.8926 112ZM64.4883 111.988C64.4883 112.887 64.3145 113.562 63.9668 114.016C63.6191 114.465 63.1094 114.689 62.4375 114.689C61.793 114.689 61.2949 114.459 60.9434 113.998C60.5918 113.533 60.416 112.863 60.416 111.988C60.416 110.203 61.0898 109.311 62.4375 109.311C63.0977 109.311 63.6035 109.543 63.9551 110.008C64.3105 110.469 64.4883 111.129 64.4883 111.988ZM68.5195 109.434L63.7676 118H62.3613L67.1133 109.434H68.5195ZM67.8926 115.422C67.8926 115.918 67.9355 116.289 68.0215 116.535C68.1113 116.777 68.2539 116.898 68.4492 116.898C68.8242 116.898 69.0117 116.406 69.0117 115.422C69.0117 114.445 68.8242 113.957 68.4492 113.957C68.2539 113.957 68.1113 114.078 68.0215 114.32C67.9355 114.559 67.8926 114.926 67.8926 115.422ZM70.4883 115.41C70.4883 116.305 70.3145 116.979 69.9668 117.432C69.6191 117.881 69.1094 118.105 68.4375 118.105C67.793 118.105 67.2949 117.875 66.9434 117.414C66.5918 116.949 66.416 116.281 66.416 115.41C66.416 113.625 67.0898 112.732 68.4375 112.732C69.0977 112.732 69.6035 112.965 69.9551 113.43C70.3105 113.891 70.4883 114.551 70.4883 115.41Z" fill="#79F09A"/>
<path d="M241 81.2424C236.113 75.9731 235.825 38.0339 229.5 38.0339C223.175 38.0339 224.612 102.32 218 102.32C211.388 102.32 211.819 73.8293 205.925 73.8653C200.031 73.9014 201.325 114.966 195 114.966C188.675 114.966 188.712 87.5656 183.787 87.5656C178.325 87.5656 176.312 63.3267 172 64.3806C167.688 65.4344 165.1 90.7272 160.5 90.7272C155.9 90.7272 152.737 74.9192 149 74.9192" stroke="#F5CC3B"/>
<g opacity="0.1">
<path d="M241 32V121" stroke="#26233C"/>
<path d="M218 32V121" stroke="#26233C"/>
<path d="M195 32V121" stroke="#26233C"/>
<path d="M149 32V121" stroke="#26233C"/>
<path d="M172 32V121" stroke="#26233C"/>
</g>
</svg>
