<svg width="290" height="81" viewBox="0 0 290 81" fill="none" xmlns="http://www.w3.org/2000/svg">
<g filter="url(#filter0_b_4708_567)">
<rect width="289.763" height="81" rx="11.1928" fill="white" fill-opacity="0.5"/>
</g>
<rect x="218.696" y="29.115" width="41.2736" height="22.3857" rx="5.59642" fill="#AA4133" fill-opacity="0.2"/>
<path d="M227.34 41.9735V40.9487H229.541V41.9735H227.34ZM234.321 43.7114H230.132V42.8302L231.636 41.3094C232.081 40.8531 232.372 40.5375 232.509 40.3626C232.646 40.185 232.744 40.021 232.804 39.8707C232.864 39.7204 232.894 39.5647 232.894 39.4034C232.894 39.163 232.827 38.984 232.693 38.8665C232.562 38.749 232.386 38.6902 232.165 38.6902C231.932 38.6902 231.707 38.7435 231.488 38.8501C231.27 38.9567 231.041 39.1083 230.804 39.3051L230.115 38.4894C230.41 38.238 230.655 38.0604 230.849 37.9565C231.043 37.8527 231.255 37.7734 231.484 37.7188C231.714 37.6614 231.971 37.6327 232.255 37.6327C232.629 37.6327 232.96 37.701 233.247 37.8376C233.534 37.9743 233.756 38.1656 233.915 38.4115C234.073 38.6574 234.153 38.9389 234.153 39.2559C234.153 39.5319 234.103 39.7915 234.005 40.0347C233.909 40.2751 233.759 40.5224 233.554 40.7766C233.352 41.0307 232.994 41.3928 232.48 41.8628L231.71 42.5883V42.6457H234.321V43.7114ZM236.473 42.8302C236.33 43.3821 236.09 44.0366 235.751 44.7935H234.849C235.027 44.0667 235.165 43.3808 235.263 42.7359H236.411L236.473 42.8302ZM239.543 39.883C240.122 39.883 240.582 40.0456 240.924 40.3708C241.268 40.696 241.44 41.1414 241.44 41.707C241.44 42.3765 241.234 42.8916 240.822 43.2523C240.409 43.6131 239.819 43.7934 239.051 43.7934C238.384 43.7934 237.846 43.6855 237.436 43.4696V42.3752C237.652 42.4899 237.903 42.5842 238.19 42.658C238.477 42.729 238.749 42.7646 239.006 42.7646C239.779 42.7646 240.166 42.4476 240.166 41.8136C240.166 41.2097 239.765 40.9078 238.965 40.9078C238.82 40.9078 238.66 40.9228 238.485 40.9528C238.31 40.9802 238.168 41.0102 238.059 41.043L237.555 40.7725L237.78 37.7188H241.031V38.7927H238.891L238.78 39.9691L238.924 39.9404C239.09 39.9021 239.297 39.883 239.543 39.883ZM243.113 39.5141C243.113 39.8612 243.143 40.1208 243.203 40.2929C243.266 40.4623 243.366 40.547 243.502 40.547C243.765 40.547 243.896 40.2027 243.896 39.5141C243.896 38.831 243.765 38.4894 243.502 38.4894C243.366 38.4894 243.266 38.5741 243.203 38.7435C243.143 38.9102 243.113 39.1671 243.113 39.5141ZM244.929 39.5059C244.929 40.1344 244.807 40.6072 244.564 40.9241C244.321 41.2384 243.964 41.3955 243.494 41.3955C243.043 41.3955 242.695 41.2343 242.449 40.9118C242.203 40.5867 242.08 40.118 242.08 39.5059C242.08 38.2571 242.551 37.6327 243.494 37.6327C243.956 37.6327 244.31 37.7953 244.556 38.1205C244.804 38.4429 244.929 38.9047 244.929 39.5059ZM247.749 37.7188L244.425 43.7114H243.441L246.765 37.7188H247.749ZM247.31 41.9079C247.31 42.2549 247.34 42.5145 247.4 42.6867C247.463 42.8561 247.563 42.9408 247.7 42.9408C247.962 42.9408 248.093 42.5965 248.093 41.9079C248.093 41.2247 247.962 40.8832 247.7 40.8832C247.563 40.8832 247.463 40.9679 247.4 41.1373C247.34 41.304 247.31 41.5608 247.31 41.9079ZM249.126 41.8997C249.126 42.5255 249.004 42.9968 248.761 43.3138C248.518 43.6281 248.161 43.7852 247.691 43.7852C247.24 43.7852 246.892 43.624 246.646 43.3015C246.4 42.9763 246.277 42.5091 246.277 41.8997C246.277 40.6509 246.749 40.0265 247.691 40.0265C248.153 40.0265 248.507 40.1891 248.753 40.5143C249.002 40.8367 249.126 41.2985 249.126 41.8997Z" fill="#C61515"/>
<path d="M30.9419 22.938H33.1178C34.1093 22.938 34.8282 23.0799 35.2745 23.3636C35.724 23.6442 35.9488 24.0921 35.9488 24.7074C35.9488 25.125 35.8499 25.4677 35.6523 25.7355C35.4578 26.0033 35.198 26.1643 34.8728 26.2185V26.2664C35.3159 26.3652 35.6348 26.5501 35.8292 26.8211C36.0269 27.0921 36.1257 27.4523 36.1257 27.9018C36.1257 28.5394 35.8946 29.0368 35.4323 29.3938C34.9732 29.7509 34.3484 29.9294 33.5577 29.9294H30.9419V22.938ZM32.4244 25.7069H33.2851C33.6868 25.7069 33.977 25.6447 34.1555 25.5203C34.3372 25.396 34.4281 25.1904 34.4281 24.9035C34.4281 24.6357 34.3292 24.4444 34.1316 24.3296C33.9371 24.2116 33.6279 24.1527 33.2039 24.1527H32.4244V25.7069ZM32.4244 26.8832V28.7052H33.3904C33.7984 28.7052 34.0997 28.6271 34.2942 28.4709C34.4886 28.3147 34.5859 28.0756 34.5859 27.7536C34.5859 27.1734 34.1714 26.8832 33.3425 26.8832H32.4244ZM37.3451 23.201C37.3451 22.726 37.6098 22.4885 38.139 22.4885C38.6682 22.4885 38.9328 22.726 38.9328 23.201C38.9328 23.4274 38.8659 23.6043 38.732 23.7318C38.6012 23.8562 38.4036 23.9183 38.139 23.9183C37.6098 23.9183 37.3451 23.6792 37.3451 23.201ZM38.8659 29.9294H37.4073V24.5831H38.8659V29.9294ZM42.6533 28.863C42.9083 28.863 43.2144 28.8072 43.5714 28.6957V29.7812C43.208 29.9438 42.7617 30.0251 42.2325 30.0251C41.649 30.0251 41.2234 29.8784 40.9556 29.5851C40.691 29.2886 40.5587 28.8455 40.5587 28.2557V25.6782H39.8605V25.0613L40.6639 24.5735L41.0847 23.4449H42.0173V24.5831H43.5141V25.6782H42.0173V28.2557C42.0173 28.4629 42.0746 28.616 42.1894 28.7148C42.3074 28.8136 42.462 28.863 42.6533 28.863ZM46.828 30.0251C45.1639 30.0251 44.3318 29.1117 44.3318 27.2849C44.3318 26.3763 44.5581 25.6829 45.0109 25.2047C45.4636 24.7233 46.1123 24.4826 46.9572 24.4826C47.5756 24.4826 48.1304 24.6038 48.6213 24.8461L48.1909 25.9746C47.9614 25.8822 47.7478 25.8073 47.5501 25.7499C47.3525 25.6893 47.1548 25.659 46.9572 25.659C46.1984 25.659 45.819 26.1978 45.819 27.2754C45.819 28.3211 46.1984 28.8439 46.9572 28.8439C47.2377 28.8439 47.4975 28.8072 47.7366 28.7339C47.9758 28.6574 48.2149 28.5394 48.454 28.38V29.6282C48.218 29.778 47.9789 29.8816 47.7366 29.939C47.4975 29.9964 47.1947 30.0251 46.828 30.0251ZM50.8594 27.2467C50.8594 27.7759 50.9454 28.176 51.1176 28.447C51.2929 28.718 51.5767 28.8535 51.9688 28.8535C52.3577 28.8535 52.6367 28.7196 52.8057 28.4518C52.9778 28.1808 53.0639 27.7791 53.0639 27.2467C53.0639 26.7175 52.9778 26.3206 52.8057 26.0559C52.6335 25.7913 52.3514 25.659 51.9592 25.659C51.5703 25.659 51.2897 25.7913 51.1176 26.0559C50.9454 26.3174 50.8594 26.7143 50.8594 27.2467ZM54.5559 27.2467C54.5559 28.117 54.3264 28.7977 53.8673 29.2886C53.4082 29.7796 52.769 30.0251 51.9497 30.0251C51.4364 30.0251 50.9837 29.9135 50.5916 29.6903C50.1994 29.464 49.8982 29.1404 49.6877 28.7196C49.4773 28.2987 49.3721 27.8078 49.3721 27.2467C49.3721 26.3732 49.6001 25.6941 50.056 25.2095C50.5119 24.7249 51.1527 24.4826 51.9784 24.4826C52.4916 24.4826 52.9444 24.5942 53.3365 24.8174C53.7286 25.0405 54.0299 25.3609 54.2403 25.7786C54.4507 26.1962 54.5559 26.6856 54.5559 27.2467ZM55.6988 23.201C55.6988 22.726 55.9635 22.4885 56.4927 22.4885C57.0219 22.4885 57.2865 22.726 57.2865 23.201C57.2865 23.4274 57.2195 23.6043 57.0856 23.7318C56.9549 23.8562 56.7573 23.9183 56.4927 23.9183C55.9635 23.9183 55.6988 23.6792 55.6988 23.201ZM57.2195 29.9294H55.761V24.5831H57.2195V29.9294ZM63.6897 29.9294H62.2312V26.8067C62.2312 26.421 62.1626 26.1325 62.0256 25.9412C61.8885 25.7467 61.6701 25.6495 61.3704 25.6495C60.9623 25.6495 60.6674 25.7866 60.4857 26.0607C60.304 26.3317 60.2131 26.7828 60.2131 27.4141V29.9294H58.7546V24.5831H59.8688L60.0649 25.2669H60.1462C60.3088 25.0087 60.5319 24.8142 60.8157 24.6835C61.1026 24.5496 61.4278 24.4826 61.7912 24.4826C62.4129 24.4826 62.8847 24.6516 63.2067 24.9895C63.5287 25.3243 63.6897 25.8089 63.6897 26.4433V29.9294Z" fill="#312E52"/>
<path d="M38.2681 51.3832C38.2681 52.1797 37.98 52.821 37.4039 53.3069C36.8278 53.7879 36.0212 54.0759 34.9842 54.1711V55.7116H33.9546V54.2012C32.7322 54.1761 31.6601 53.9607 30.7383 53.5549V51.571C31.1742 51.7864 31.6977 51.9768 32.3089 52.1421C32.9251 52.3075 33.4737 52.4052 33.9546 52.4352V50.1056L33.4512 49.9103C32.4592 49.5195 31.7553 49.0962 31.3395 48.6403C30.9287 48.1794 30.7233 47.6108 30.7233 46.9344C30.7233 46.208 31.0064 45.6118 31.5725 45.1459C32.1436 44.675 32.9376 44.3894 33.9546 44.2893V43.1395H34.9842V44.2592C36.1314 44.3093 37.1684 44.5397 38.0953 44.9505L37.3889 46.709C36.6073 46.3884 35.8058 46.193 34.9842 46.1228V48.3397C35.9611 48.7154 36.6549 49.0411 37.0657 49.3166C37.4816 49.5921 37.7846 49.8952 37.975 50.2259C38.1704 50.5565 38.2681 50.9423 38.2681 51.3832ZM36.0062 51.4959C36.0062 51.2855 35.921 51.1076 35.7507 50.9623C35.5803 50.817 35.3248 50.6667 34.9842 50.5114V52.3826C35.6655 52.2674 36.0062 51.9718 36.0062 51.4959ZM32.9852 46.9344C32.9852 47.1549 33.0604 47.3377 33.2107 47.483C33.366 47.6233 33.614 47.7686 33.9546 47.9189V46.1529C33.3084 46.2481 32.9852 46.5086 32.9852 46.9344ZM43.4683 47.7986C44.5304 47.7986 45.3745 48.0967 46.0007 48.6929C46.632 49.289 46.9476 50.1056 46.9476 51.1427C46.9476 52.3701 46.5694 53.3144 45.8129 53.9757C45.0564 54.637 43.9743 54.9677 42.5665 54.9677C41.3441 54.9677 40.3572 54.7698 39.6057 54.374V52.3676C40.0015 52.578 40.4624 52.7508 40.9884 52.8861C41.5145 53.0164 42.0129 53.0815 42.4839 53.0815C43.9016 53.0815 44.6105 52.5003 44.6105 51.3381C44.6105 50.2309 43.8766 49.6773 42.4087 49.6773C42.1432 49.6773 41.8501 49.7049 41.5295 49.76C41.2089 49.8101 40.9483 49.8652 40.748 49.9253L39.8236 49.4293L40.237 43.8309H46.1961V45.7997H42.2734L42.0705 47.9564L42.3336 47.9038C42.6392 47.8337 43.0174 47.7986 43.4683 47.7986ZM55.5144 46.2882C55.5144 46.9745 55.3065 47.5582 54.8907 48.0391C54.4749 48.52 53.8912 48.8507 53.1397 49.031V49.0761C54.0265 49.1863 54.6978 49.4569 55.1537 49.8877C55.6096 50.3136 55.8375 50.8897 55.8375 51.6161C55.8375 52.6732 55.4543 53.4973 54.6878 54.0885C53.9213 54.6746 52.8266 54.9677 51.4038 54.9677C50.2115 54.9677 49.1544 54.7698 48.2326 54.374V52.3976C48.6585 52.6131 49.1269 52.7884 49.6379 52.9237C50.1489 53.0589 50.6549 53.1266 51.1558 53.1266C51.9224 53.1266 52.4885 52.9963 52.8542 52.7358C53.2199 52.4753 53.4028 52.057 53.4028 51.4808C53.4028 50.9648 53.1923 50.5991 52.7715 50.3837C52.3507 50.1683 51.6794 50.0606 50.7576 50.0606H49.9234V48.2796H50.7726C51.6243 48.2796 52.2455 48.1694 52.6362 47.9489C53.032 47.7235 53.2299 47.3402 53.2299 46.7992C53.2299 45.9675 52.7089 45.5517 51.6668 45.5517C51.3061 45.5517 50.9379 45.6118 50.5622 45.7321C50.1915 45.8523 49.7781 46.0602 49.3223 46.3558L48.2476 44.7552C49.2496 44.0338 50.4445 43.673 51.8322 43.673C52.9694 43.673 53.8662 43.9035 54.5224 44.3644C55.1837 44.8253 55.5144 45.4666 55.5144 46.2882ZM57.3179 53.7428C57.3179 53.322 57.4306 53.0038 57.6561 52.7884C57.8815 52.573 58.2097 52.4653 58.6405 52.4653C59.0563 52.4653 59.377 52.5755 59.6024 52.7959C59.8329 53.0164 59.9481 53.332 59.9481 53.7428C59.9481 54.1386 59.8329 54.4517 59.6024 54.6821C59.3719 54.9076 59.0513 55.0203 58.6405 55.0203C58.2197 55.0203 57.8941 54.9101 57.6636 54.6896C57.4332 54.4642 57.3179 54.1486 57.3179 53.7428ZM65.2309 43.6881C66.283 43.6881 67.1297 43.9285 67.7709 44.4095C68.4172 44.8854 68.7403 45.5292 68.7403 46.3408C68.7403 46.9019 68.585 47.4029 68.2744 47.8437C67.9638 48.2796 67.4628 48.6703 66.7714 49.016C67.5931 49.4569 68.1817 49.9178 68.5374 50.3987C68.8981 50.8747 69.0785 51.3982 69.0785 51.9693C69.0785 52.8711 68.7253 53.5975 68.0189 54.1486C67.3125 54.6946 66.3832 54.9677 65.2309 54.9677C64.0286 54.9677 63.0842 54.7122 62.3979 54.2012C61.7115 53.6902 61.3684 52.9663 61.3684 52.0294C61.3684 51.4032 61.5337 50.8471 61.8643 50.3612C62.2 49.8752 62.736 49.4469 63.4725 49.0761C62.8463 48.6804 62.3954 48.257 62.1198 47.8061C61.8443 47.3553 61.7065 46.8618 61.7065 46.3257C61.7065 45.5392 62.0322 44.903 62.6834 44.417C63.3347 43.931 64.1839 43.6881 65.2309 43.6881ZM63.5176 51.8942C63.5176 52.325 63.6679 52.6607 63.9685 52.9011C64.269 53.1416 64.6799 53.2618 65.2009 53.2618C65.777 53.2618 66.2078 53.1391 66.4934 52.8936C66.779 52.6431 66.9217 52.315 66.9217 51.9092C66.9217 51.5735 66.779 51.2604 66.4934 50.9698C66.2129 50.6743 65.7545 50.3612 65.1182 50.0305C64.0511 50.5215 63.5176 51.1427 63.5176 51.8942ZM65.2159 45.3864C64.8201 45.3864 64.4995 45.4891 64.254 45.6945C64.0135 45.8949 63.8933 46.1654 63.8933 46.5061C63.8933 46.8067 63.9885 47.0772 64.1789 47.3177C64.3743 47.5531 64.7249 47.7961 65.2309 48.0466C65.7219 47.8162 66.0651 47.5807 66.2604 47.3402C66.4558 47.0998 66.5535 46.8217 66.5535 46.5061C66.5535 46.1604 66.4283 45.8874 66.1778 45.687C65.9273 45.4866 65.6067 45.3864 65.2159 45.3864ZM70.1606 50.1507C70.1606 47.9765 70.619 46.3583 71.5358 45.2962C72.4576 44.2341 73.8353 43.7031 75.6689 43.7031C76.2951 43.7031 76.7861 43.7407 77.1418 43.8158V45.672C76.6959 45.5718 76.255 45.5217 75.8192 45.5217C75.0226 45.5217 74.3713 45.6419 73.8653 45.8824C73.3644 46.1228 72.9886 46.4785 72.7381 46.9495C72.4877 47.4204 72.3399 48.0892 72.2948 48.9559H72.3925C72.8884 48.1042 73.6825 47.6784 74.7746 47.6784C75.7566 47.6784 76.5256 47.9865 77.0817 48.6027C77.6377 49.2189 77.9158 50.0706 77.9158 51.1577C77.9158 52.33 77.5851 53.2593 76.9238 53.9457C76.2625 54.627 75.3458 54.9677 74.1735 54.9677C73.3619 54.9677 72.653 54.7798 72.0468 54.4041C71.4456 54.0283 70.9797 53.4798 70.649 52.7583C70.3234 52.0369 70.1606 51.1677 70.1606 50.1507ZM74.1284 53.1115C74.6243 53.1115 75.0051 52.9462 75.2706 52.6156C75.5361 52.2799 75.6689 51.804 75.6689 51.1878C75.6689 50.6517 75.5436 50.2309 75.2931 49.9253C75.0477 49.6147 74.6744 49.4594 74.1735 49.4594C73.7025 49.4594 73.2992 49.6122 72.9636 49.9178C72.6329 50.2234 72.4676 50.5791 72.4676 50.9849C72.4676 51.581 72.6229 52.0845 72.9335 52.4953C73.2491 52.9061 73.6474 53.1115 74.1284 53.1115ZM86.2797 46.2882C86.2797 46.9745 86.0718 47.5582 85.656 48.0391C85.2401 48.52 84.6565 48.8507 83.905 49.031V49.0761C84.7918 49.1863 85.4631 49.4569 85.919 49.8877C86.3749 50.3136 86.6028 50.8897 86.6028 51.6161C86.6028 52.6732 86.2196 53.4973 85.4531 54.0885C84.6866 54.6746 83.5919 54.9677 82.1691 54.9677C80.9768 54.9677 79.9197 54.7698 78.9979 54.374V52.3976C79.4237 52.6131 79.8922 52.7884 80.4032 52.9237C80.9142 53.0589 81.4202 53.1266 81.9211 53.1266C82.6876 53.1266 83.2537 52.9963 83.6195 52.7358C83.9852 52.4753 84.168 52.057 84.168 51.4808C84.168 50.9648 83.9576 50.5991 83.5368 50.3837C83.116 50.1683 82.4447 50.0606 81.5229 50.0606H80.6887V48.2796H81.5379C82.3896 48.2796 83.0108 48.1694 83.4015 47.9489C83.7973 47.7235 83.9952 47.3402 83.9952 46.7992C83.9952 45.9675 83.4742 45.5517 82.4321 45.5517C82.0714 45.5517 81.7032 45.6118 81.3275 45.7321C80.9567 45.8523 80.5434 46.0602 80.0875 46.3558L79.0129 44.7552C80.0149 44.0338 81.2097 43.673 82.5975 43.673C83.7347 43.673 84.6314 43.9035 85.2877 44.3644C85.949 44.8253 86.2797 45.4666 86.2797 46.2882ZM90.6533 53.2017C90.3927 54.2137 89.9519 55.4136 89.3307 56.8013H87.6774C88.0031 55.4687 88.2561 54.2112 88.4364 53.0289H90.5405L90.6533 53.2017ZM99.9189 48.52C99.9189 50.6843 99.463 52.2999 98.5512 53.367C97.6394 54.4341 96.2592 54.9677 94.4106 54.9677C93.7593 54.9677 93.2659 54.9326 92.9302 54.8625V52.9988C93.351 53.104 93.7919 53.1566 94.2528 53.1566C95.0293 53.1566 95.6681 53.0439 96.1691 52.8185C96.67 52.588 97.0533 52.2298 97.3188 51.7439C97.5843 51.2529 97.7371 50.5791 97.7772 49.7224H97.687C97.3965 50.1933 97.0608 50.524 96.6801 50.7143C96.2993 50.9047 95.8234 50.9999 95.2523 50.9999C94.2954 50.9999 93.5414 50.6943 92.9903 50.0831C92.4392 49.4669 92.1637 48.6127 92.1637 47.5206C92.1637 46.3433 92.4969 45.414 93.1632 44.7326C93.8345 44.0463 94.7463 43.7031 95.8985 43.7031C96.7101 43.7031 97.419 43.8935 98.0252 44.2742C98.6364 44.655 99.1048 45.2086 99.4304 45.935C99.7561 46.6564 99.9189 47.5181 99.9189 48.52ZM95.9436 45.5668C95.4627 45.5668 95.0869 45.7321 94.8164 46.0627C94.5459 46.3934 94.4106 46.8693 94.4106 47.4905C94.4106 48.0216 94.5334 48.4424 94.7788 48.753C95.0243 49.0636 95.3975 49.2189 95.8985 49.2189C96.3694 49.2189 96.7727 49.0661 97.1084 48.7605C97.4441 48.4499 97.6119 48.0942 97.6119 47.6934C97.6119 47.0973 97.4541 46.5938 97.1385 46.183C96.8278 45.7722 96.4296 45.5668 95.9436 45.5668Z" fill="#312E52"/>
<g clip-path="url(#clip0_4708_567)">
<path d="M80.263 27.5789C79.5152 30.5786 76.4761 32.4021 73.4807 31.6543C70.4809 30.9066 68.6574 27.8675 69.4052 24.8722C70.153 21.8725 73.1877 20.049 76.1875 20.7968C79.1829 21.5402 81.0108 24.5792 80.263 27.5789Z" fill="url(#paint0_linear_4708_567)"/>
<path d="M77.4991 25.5279C77.6084 24.7847 77.0444 24.3824 76.2661 24.1157L76.5197 23.1057L75.9076 22.9527L75.6628 23.9365C75.501 23.8971 75.3348 23.8578 75.1687 23.8228L75.4135 22.8347L74.8014 22.6816L74.5522 23.6872C74.4167 23.6566 74.2855 23.626 74.1587 23.5954V23.5911L73.3105 23.3812L73.1487 24.037C73.1487 24.037 73.6034 24.142 73.5947 24.1463C73.8439 24.2075 73.8876 24.3737 73.8789 24.5048L73.5903 25.6547C73.6078 25.6591 73.6297 25.6635 73.6559 25.6766C73.6341 25.6722 73.6122 25.6679 73.5903 25.6591L73.1881 27.2681C73.1575 27.3424 73.0788 27.4561 72.9083 27.4124C72.9126 27.4211 72.4623 27.3031 72.4623 27.3031L72.1562 28.007L72.9564 28.2081C73.105 28.2475 73.2493 28.2824 73.3936 28.3218L73.14 29.3405L73.7521 29.4935L74.0057 28.4836C74.1718 28.5273 74.338 28.571 74.4954 28.6103L74.2462 29.616L74.8583 29.769L75.1119 28.7503C76.1612 28.947 76.9482 28.8683 77.2761 27.9195C77.5428 27.1588 77.263 26.7172 76.7121 26.4286C77.1187 26.3368 77.4204 26.0701 77.4991 25.5279V25.5279ZM76.0956 27.4954C75.9076 28.2562 74.6222 27.8452 74.2068 27.7403L74.5435 26.3893C74.9588 26.4942 76.2967 26.6997 76.0956 27.4954ZM76.288 25.5148C76.1131 26.21 75.0463 25.8559 74.7009 25.7684L75.0069 24.5442C75.3523 24.6316 76.4672 24.7934 76.288 25.5148Z" fill="#312E52"/>
</g>
<path d="M187.799 41.1825C184.738 38.9082 184.558 22.5337 180.597 22.5337C176.635 22.5337 177.536 50.2794 173.394 50.2794C169.253 50.2794 169.523 37.983 165.832 37.9985C162.14 38.0141 162.951 55.7376 158.99 55.7376C155.028 55.7376 155.052 43.9116 151.967 43.9116C148.546 43.9116 147.286 33.45 144.585 33.9049C141.884 34.3597 140.264 45.2761 137.383 45.2761C134.502 45.2761 132.521 38.4534 130.18 38.4534" stroke="#F5683B" stroke-width="0.946938" stroke-linecap="round"/>
<g opacity="0.1">
<path d="M187.798 19.9294V58.3418" stroke="white" stroke-opacity="0.3" stroke-width="0.435679"/>
<path d="M173.394 19.9294V58.3418" stroke="white" stroke-opacity="0.3" stroke-width="0.435679"/>
<path d="M158.989 19.9294V58.3418" stroke="white" stroke-opacity="0.3" stroke-width="0.435679"/>
<path d="M130.18 19.9294V58.3418" stroke="white" stroke-opacity="0.3" stroke-width="0.435679"/>
<path d="M144.584 19.9294V58.3418" stroke="white" stroke-opacity="0.3" stroke-width="0.435679"/>
</g>
<defs>
<filter id="filter0_b_4708_567" x="-24.6607" y="-24.6607" width="339.084" height="130.321" filterUnits="userSpaceOnUse" color-interpolation-filters="sRGB">
<feFlood flood-opacity="0" result="BackgroundImageFix"/>
<feGaussianBlur in="BackgroundImageFix" stdDeviation="12.3303"/>
<feComposite in2="SourceAlpha" operator="in" result="effect1_backgroundBlur_4708_567"/>
<feBlend mode="normal" in="SourceGraphic" in2="effect1_backgroundBlur_4708_567" result="shape"/>
</filter>
<linearGradient id="paint0_linear_4708_567" x1="74.8309" y1="20.6265" x2="74.8309" y2="31.8209" gradientUnits="userSpaceOnUse">
<stop stop-color="#F9AA4B"/>
<stop offset="1" stop-color="#F7931A"/>
</linearGradient>
<clipPath id="clip0_4708_567">
<rect width="11.1928" height="11.1928" fill="white" transform="translate(69.2373 20.6289)"/>
</clipPath>
</defs>
</svg>
